<svg width="51" height="24" viewBox="0 0 51 24" fill="none" xmlns="http://www.w3.org/2000/svg">
<path d="M17.338 13.846C17.338 16.708 14.881 18.031 11.614 18.031C8.45503 18.058 6.67303 16.897 6.67303 13.873C6.67303 10.822 8.34703 9.634 11.965 9.634C14.206 9.634 15.961 9.985 17.338 10.714V13.846ZM17.203 1.102C17.257 2.398 17.23 3.559 17.23 4.909C17.23 5.989 17.23 6.934 17.257 7.987L17.203 8.014C16.015 6.448 13.693 5.314 9.85903 5.314C4.64803 5.314 1.05703 8.149 1.05703 13.9C1.05703 19.624 4.18903 22.27 9.56203 22.27C13.288 22.27 15.88 20.866 17.068 18.76L17.284 18.814C17.257 19.246 17.23 19.678 17.23 20.137C17.23 20.839 17.203 21.406 17.203 22.027H23.143C23.089 19.759 23.089 17.275 23.089 13.738C23.089 8.095 23.062 4.585 23.17 1.102H17.203Z" fill="#B11818"/>
<path d="M11.614 18.031V17.031L11.6055 17.031L11.614 18.031ZM17.338 10.714H18.338V10.1119L17.8059 9.83021L17.338 10.714ZM17.203 1.102V0.101999H16.1605L16.2039 1.14363L17.203 1.102ZM17.257 7.987L17.7043 8.88142L18.273 8.59704L18.2567 7.96136L17.257 7.987ZM17.203 8.014L16.4063 8.61839L16.9079 9.27959L17.6503 8.90842L17.203 8.014ZM17.068 18.76L17.3106 17.7899L16.5714 17.6051L16.1971 18.2687L17.068 18.76ZM17.284 18.814L18.2821 18.8764L18.334 18.0457L17.5266 17.8439L17.284 18.814ZM17.203 22.027H16.203V23.027H17.203V22.027ZM23.143 22.027V23.027H24.1671L24.1427 22.0032L23.143 22.027ZM23.17 1.102L24.1696 1.13299L24.2015 0.101999H23.17V1.102ZM16.338 13.846C16.338 14.9417 15.8914 15.6781 15.1427 16.1822C14.3442 16.7198 13.1343 17.031 11.614 17.031V19.031C13.3608 19.031 15.0129 18.6807 16.2596 17.8413C17.5561 16.9684 18.338 15.6123 18.338 13.846H16.338ZM11.6055 17.031C10.1175 17.0438 9.15702 16.7689 8.57937 16.3119C8.04957 15.8927 7.67303 15.1828 7.67303 13.873H5.67303C5.67303 15.5872 6.18749 16.9698 7.33844 17.8804C8.44154 18.7531 9.95158 19.0452 11.6226 19.031L11.6055 17.031ZM7.67303 13.873C7.67303 12.5305 8.03353 11.8215 8.57686 11.3982C9.17994 10.9284 10.2239 10.634 11.965 10.634V8.634C10.0881 8.634 8.48612 8.93361 7.34771 9.82051C6.14954 10.754 5.67303 12.1645 5.67303 13.873H7.67303ZM11.965 10.634C14.1109 10.634 15.6873 10.9716 16.8701 11.5978L17.8059 9.83021C16.2348 8.99843 14.3012 8.634 11.965 8.634V10.634ZM16.338 10.714V13.846H18.338V10.714H16.338ZM16.2039 1.14363C16.2567 2.41189 16.23 3.53123 16.23 4.909H18.23C18.23 3.58677 18.2573 2.38411 18.2022 1.06037L16.2039 1.14363ZM16.23 4.909C16.23 5.98746 16.23 6.94489 16.2574 8.01263L18.2567 7.96136C18.2301 6.92311 18.23 5.99054 18.23 4.909H16.23ZM16.8098 7.09258L16.7558 7.11958L17.6503 8.90842L17.7043 8.88142L16.8098 7.09258ZM17.9997 7.40961C16.5541 5.504 13.8716 4.314 9.85903 4.314V6.314C13.5144 6.314 15.476 7.39199 16.4063 8.61839L17.9997 7.40961ZM9.85903 4.314C7.08058 4.314 4.6104 5.07078 2.82623 6.71502C1.02883 8.37144 0.0570316 10.8092 0.0570316 13.9H2.05703C2.05703 11.2398 2.88074 9.38456 4.18159 8.18573C5.49566 6.97472 7.42648 6.314 9.85903 6.314V4.314ZM0.0570316 13.9C0.0570316 16.9401 0.892347 19.3344 2.60719 20.9577C4.31211 22.5717 6.72527 23.27 9.56203 23.27V21.27C7.02579 21.27 5.18645 20.6453 3.98212 19.5053C2.78772 18.3746 2.05703 16.5839 2.05703 13.9H0.0570316ZM9.56203 23.27C13.5245 23.27 16.5201 21.7667 17.939 19.2513L16.1971 18.2687C15.24 19.9653 13.0515 21.27 9.56203 21.27V23.27ZM16.8255 19.7301L17.0415 19.7841L17.5266 17.8439L17.3106 17.7899L16.8255 19.7301ZM16.286 18.7516C16.2592 19.1798 16.23 19.6421 16.23 20.137H18.23C18.23 19.7139 18.2548 19.3122 18.2821 18.8764L16.286 18.7516ZM16.23 20.137C16.23 20.4758 16.2235 20.783 16.2168 21.0904C16.2101 21.3952 16.203 21.7035 16.203 22.027H18.203C18.203 21.7295 18.2095 21.4438 18.2163 21.1343C18.223 20.8275 18.23 20.5002 18.23 20.137H16.23ZM17.203 23.027H23.143V21.027H17.203V23.027ZM24.1427 22.0032C24.0891 19.7497 24.089 17.2789 24.089 13.738H22.089C22.089 17.2711 22.089 19.7683 22.1433 22.0508L24.1427 22.0032ZM24.089 13.738C24.089 8.08277 24.0622 4.59582 24.1696 1.13299L22.1705 1.07101C22.0619 4.57418 22.089 8.10723 22.089 13.738H24.089ZM23.17 0.101999H17.203V2.102H23.17V0.101999ZM31.3279 16.792L30.3281 16.8137L30.348 17.7305L31.2631 17.7899L31.3279 16.792ZM31.3559 6.18L31.3124 5.18094L30.371 5.22188L30.356 6.16413L31.3559 6.18ZM24.8599 0.999998V-1.90735e-06H23.8285L23.8604 1.03091L24.8599 0.999998ZM24.8599 22L23.8603 21.9712L23.8306 23H24.8599V22ZM37.3759 15.876C35.0461 15.876 33.5058 15.9313 31.3927 15.7941L31.2631 17.7899C33.462 17.9327 35.1136 17.876 37.3759 17.876V15.876ZM32.3276 16.7703C32.2999 15.4957 32.2999 13.9124 32.2999 11.724H30.2999C30.2999 13.9036 30.2998 15.5123 30.3281 16.8137L32.3276 16.7703ZM32.2999 11.724C32.2999 9.91274 32.3278 7.95982 32.3558 6.19587L30.356 6.16413C30.328 7.92818 30.2999 9.89526 30.2999 11.724H32.2999ZM31.3993 7.17906C33.3116 7.09591 35.284 7.068 37.4319 7.068V5.068C35.2678 5.068 33.2641 5.09609 31.3124 5.18094L31.3993 7.17906ZM37.4319 7.068C39.4521 7.068 40.6041 7.3462 41.2719 7.89221C41.8833 8.39197 42.3119 9.31379 42.3119 11.276H44.3119C44.3119 9.09421 43.8445 7.41203 42.5378 6.34379C41.2877 5.3218 39.4996 5.068 37.4319 5.068V7.068ZM42.3119 11.276C42.3119 13.3465 41.8566 14.387 41.1989 14.9601C40.5065 15.5635 39.3421 15.876 37.3759 15.876V17.876C39.4417 17.876 41.2452 17.5725 42.5129 16.4679C43.8152 15.333 44.3119 13.5735 44.3119 11.276H42.3119ZM23.8604 1.03091C23.9438 3.72788 23.9439 7.06993 23.9439 11.528H25.9439C25.9439 7.08206 25.944 3.70411 25.8594 0.969086L23.8604 1.03091ZM23.9439 11.528C23.9439 15.9845 23.9438 19.0766 23.8603 21.9712L25.8595 22.0288C25.944 19.0994 25.9439 15.9755 25.9439 11.528H23.9439ZM24.8599 23H37.5159V21H24.8599V23ZM37.5159 23C42.2361 23 45.6096 22.1095 47.7835 20.0481C49.9736 17.9713 50.7239 14.9202 50.7239 11.164H48.7239C48.7239 14.7158 48.0041 17.0827 46.4073 18.5969C44.7942 20.1265 42.0637 21 37.5159 21V23ZM50.7239 11.164C50.7239 7.49809 49.9142 4.60254 47.6878 2.67027C45.5006 0.771959 42.162 -1.90735e-06 37.5999 -1.90735e-06V2C42.0258 2 44.7492 2.76804 46.3769 4.18073C47.9655 5.55945 48.7239 7.74591 48.7239 11.164H50.7239ZM37.5999 -1.90735e-06H24.8599V2H37.5999V-1.90735e-06Z" fill="#B11818"/>
</svg>
